<?xml version="1.0" encoding="UTF-8"?>
<svg width="200px" height="200px" viewBox="0 0 200 200" version="1.1" xmlns="http://www.w3.org/2000/svg" xmlns:xlink="http://www.w3.org/1999/xlink">
    <!-- Generator: Sketch 61.1 (89650) - https://sketch.com -->
    <title>组件/页面/答题通/学业里程碑/尝试3天</title>
    <desc>Created with Sketch.</desc>
    <defs>
        <path d="M95,5.77350269 L148.612159,36.7264973 C154.800181,40.2991532 158.612159,46.9016936 158.612159,54.0470054 L158.612159,115.952995 C158.612159,123.098306 154.800181,129.700847 148.612159,133.273503 L95,164.226497 C88.8119785,167.799153 81.1880215,167.799153 75,164.226497 L21.3878407,133.273503 C15.1998191,129.700847 11.3878407,123.098306 11.3878407,115.952995 L11.3878407,54.0470054 C11.3878407,46.9016936 15.1998191,40.2991532 21.3878407,36.7264973 L75,5.77350269 C81.1880215,2.20084679 88.8119785,2.20084679 95,5.77350269 Z" id="path-1"></path>
        <filter x="-34.5%" y="-27.6%" width="169.0%" height="178.7%" filterUnits="objectBoundingBox" id="filter-3">
            <feOffset dx="0" dy="20" in="SourceAlpha" result="shadowOffsetOuter1"></feOffset>
            <feGaussianBlur stdDeviation="20" in="shadowOffsetOuter1" result="shadowBlurOuter1"></feGaussianBlur>
            <feColorMatrix values="0 0 0 0 0.233242754   0 0 0 0 0.233242754   0 0 0 0 0.233242754  0 0 0 0.103638549 0" type="matrix" in="shadowBlurOuter1"></feColorMatrix>
        </filter>
        <linearGradient x1="50%" y1="0%" x2="50%" y2="100%" id="linearGradient-4">
            <stop stop-color="#4AD5EF" offset="0%"></stop>
            <stop stop-color="#44B8EE" offset="100%"></stop>
        </linearGradient>
        <polygon id="path-5" points="7.10542736e-15 -1.77635684e-14 39.1373394 -1.77635684e-14 66.9123929 44.7801197 30.3002142 44.7801197"></polygon>
        <linearGradient x1="50%" y1="100%" x2="50%" y2="-14.4171173%" id="linearGradient-7">
            <stop stop-color="#3A7BF3" offset="0%"></stop>
            <stop stop-color="#5598FE" offset="100%"></stop>
        </linearGradient>
        <polygon id="path-8" points="70.7 -2.13162821e-14 35.3501606 44.7801197 -4.61852778e-14 44.8706472 34.0873929 -2.13162821e-14"></polygon>
        <linearGradient x1="10.281808%" y1="70.139832%" x2="100%" y2="41.8751468%" id="linearGradient-10">
            <stop stop-color="#4ACAFD" offset="0%"></stop>
            <stop stop-color="#3E8CFA" offset="100%"></stop>
        </linearGradient>
        <linearGradient x1="50%" y1="0%" x2="50%" y2="100%" id="linearGradient-11">
            <stop stop-color="#4AD5EF" offset="0%"></stop>
            <stop stop-color="#44B8EE" offset="100%"></stop>
        </linearGradient>
        <radialGradient cx="0%" cy="0%" fx="0%" fy="0%" r="141.175004%" id="radialGradient-12">
            <stop stop-color="#FFFFFF" offset="0%"></stop>
            <stop stop-color="#49D3EF" offset="100%"></stop>
        </radialGradient>
        <linearGradient x1="0%" y1="0%" x2="100%" y2="100%" id="linearGradient-13">
            <stop stop-color="#4AD5EF" offset="0%"></stop>
            <stop stop-color="#44B8EE" offset="100%"></stop>
        </linearGradient>
        <path d="M30.12,34.14 C31.24,34.14 32.25,33.75 33.15,32.97 C34.05,32.19 34.58,31.22 34.74,30.06 L34.74,30.06 L39,0 L4.8,0 L4.02,5.64 L26.82,5.64 L25.68,13.62 L5.16,13.62 L4.38,19.32 L24.9,19.32 L23.58,28.44 L0.84,28.44 L0,34.14 L30.12,34.14 Z" id="path-14"></path>
        <filter x="-1.3%" y="-1.5%" width="102.6%" height="102.9%" filterUnits="objectBoundingBox" id="filter-15">
            <feOffset dx="-1" dy="-1" in="SourceAlpha" result="shadowOffsetInner1"></feOffset>
            <feComposite in="shadowOffsetInner1" in2="SourceAlpha" operator="arithmetic" k2="-1" k3="1" result="shadowInnerInner1"></feComposite>
            <feColorMatrix values="0 0 0 0 0   0 0 0 0 0   0 0 0 0 0  0 0 0 0.198208042 0" type="matrix" in="shadowInnerInner1"></feColorMatrix>
        </filter>
    </defs>
    <g id="组件/页面/答题通/学业里程碑/尝试3天" stroke="none" stroke-width="1" fill="none" fill-rule="evenodd">
        <g id="编组-3备份-2" transform="translate(14.000000, 12.000000)">
            <g id="矩形" transform="translate(0.000000, 3.000000)">
                <mask id="mask-2" fill="white">
                    <use xlink:href="#path-1"></use>
                </mask>
                <g id="蒙版">
                    <use fill="black" fill-opacity="1" filter="url(#filter-3)" xlink:href="#path-1"></use>
                    <use fill="#FFFFFF" fill-rule="evenodd" xlink:href="#path-1"></use>
                </g>
            </g>
            <g id="编组" transform="translate(36.000000, 0.000000)">
                <g id="分组">
                    <mask id="mask-6" fill="white">
                        <use xlink:href="#path-5"></use>
                    </mask>
                    <use id="路径" fill="url(#linearGradient-4)" fill-rule="nonzero" xlink:href="#path-5"></use>
                    <polygon id="路径" fill="#4FECEA" fill-rule="nonzero" mask="url(#mask-6)" points="13.8875 -1.77635684e-14 49.2373394 -1.77635684e-14 74.4873929 44.7801197 44.1877142 44.7801197"></polygon>
                </g>
                <g id="分组-2" transform="translate(30.300000, -0.000000)">
                    <mask id="mask-9" fill="white">
                        <use xlink:href="#path-8"></use>
                    </mask>
                    <use id="路径" fill="url(#linearGradient-7)" fill-rule="nonzero" xlink:href="#path-8"></use>
                    <polygon id="路径" fill="url(#linearGradient-10)" fill-rule="nonzero" mask="url(#mask-9)" points="58.075 -2.13162821e-14 22.7251606 44.7801197 -12.625 44.8706472 21.4623929 -2.13162821e-14"></polygon>
                </g>
            </g>
            <path d="M95,23.7735027 L135.621778,47.2264973 C141.8098,50.7991532 145.621778,57.4016936 145.621778,64.5470054 L145.621778,111.452995 C145.621778,118.598306 141.8098,125.200847 135.621778,128.773503 L95,152.226497 C88.8119785,155.799153 81.1880215,155.799153 75,152.226497 L34.3782217,128.773503 C28.1902002,125.200847 24.3782217,118.598306 24.3782217,111.452995 L24.3782217,64.5470054 C24.3782217,57.4016936 28.1902002,50.7991532 34.3782217,47.2264973 L75,23.7735027 C81.1880215,20.2008468 88.8119785,20.2008468 95,23.7735027 Z" id="多边形" fill="url(#linearGradient-11)" fill-rule="nonzero"></path>
            <circle id="椭圆形" stroke="url(#linearGradient-13)" stroke-width="4" fill="url(#radialGradient-12)" cx="86" cy="88" r="50"></circle>
            <g id="等级" transform="translate(67.000000, 71.000000)" fill-rule="nonzero">
                <g id="3">
                    <use fill="#FFFFFF" xlink:href="#path-14"></use>
                    <use fill="black" fill-opacity="1" filter="url(#filter-15)" xlink:href="#path-14"></use>
                </g>
            </g>
        </g>
    </g>
</svg>