<?xml version="1.0" encoding="UTF-8"?>
<svg width="200px" height="200px" viewBox="0 0 200 200" version="1.1" xmlns="http://www.w3.org/2000/svg" xmlns:xlink="http://www.w3.org/1999/xlink">
    <!-- Generator: Sketch 61.1 (89650) - https://sketch.com -->
    <title>组件/页面/答题通/学业里程碑/开始学习未激活</title>
    <desc>Created with Sketch.</desc>
    <defs>
        <path d="M95,5.77350269 L148.612159,36.7264973 C154.800181,40.2991532 158.612159,46.9016936 158.612159,54.0470054 L158.612159,115.952995 C158.612159,123.098306 154.800181,129.700847 148.612159,133.273503 L95,164.226497 C88.8119785,167.799153 81.1880215,167.799153 75,164.226497 L21.3878407,133.273503 C15.1998191,129.700847 11.3878407,123.098306 11.3878407,115.952995 L11.3878407,54.0470054 C11.3878407,46.9016936 15.1998191,40.2991532 21.3878407,36.7264973 L75,5.77350269 C81.1880215,2.20084679 88.8119785,2.20084679 95,5.77350269 Z" id="path-1"></path>
        <filter x="-34.5%" y="-27.6%" width="169.0%" height="178.7%" filterUnits="objectBoundingBox" id="filter-3">
            <feOffset dx="0" dy="20" in="SourceAlpha" result="shadowOffsetOuter1"></feOffset>
            <feGaussianBlur stdDeviation="20" in="shadowOffsetOuter1" result="shadowBlurOuter1"></feGaussianBlur>
            <feColorMatrix values="0 0 0 0 0.233242754   0 0 0 0 0.233242754   0 0 0 0 0.233242754  0 0 0 0.103638549 0" type="matrix" in="shadowBlurOuter1"></feColorMatrix>
        </filter>
    </defs>
    <g id="组件/页面/答题通/学业里程碑/开始学习未激活" stroke="none" stroke-width="1" fill="none" fill-rule="evenodd">
        <g id="编组-3备份-2" transform="translate(15.000000, 18.000000)">
            <g id="矩形">
                <mask id="mask-2" fill="white">
                    <use xlink:href="#path-1"></use>
                </mask>
                <g id="蒙版">
                    <use fill="black" fill-opacity="1" filter="url(#filter-3)" xlink:href="#path-1"></use>
                    <use fill="#D8D8D8" fill-rule="evenodd" xlink:href="#path-1"></use>
                </g>
            </g>
            <path d="M95,20.7735027 L135.621778,44.2264973 C141.8098,47.7991532 145.621778,54.4016936 145.621778,61.5470054 L145.621778,108.452995 C145.621778,115.598306 141.8098,122.200847 135.621778,125.773503 L95,149.226497 C88.8119785,152.799153 81.1880215,152.799153 75,149.226497 L34.3782217,125.773503 C28.1902002,122.200847 24.3782217,115.598306 24.3782217,108.452995 L24.3782217,61.5470054 C24.3782217,54.4016936 28.1902002,47.7991532 34.3782217,44.2264973 L75,20.7735027 C81.1880215,17.2008468 88.8119785,17.2008468 95,20.7735027 Z" id="多边形" fill="#FFFFFF" fill-rule="nonzero"></path>
            <g id="学习" transform="translate(63.000000, 63.000000)" fill="#D8D8D8" fill-rule="nonzero">
                <path d="M4.10170282,18.2712834 C10.440675,18.2712834 15.6609975,19.3899288 20.881363,22.3729819 L20.881363,22.3729819 L20.881363,44.0001242 C15.6610405,40.6441664 10.440675,38.7797588 4.10170282,38.7797588 C3.35593633,38.7797588 2.61017413,38.0339923 2.61017413,37.2882301 L2.61017413,37.2882301 L2.61017413,36.1695847 C5.5932487,36.1695847 7.83053958,33.9322723 7.83053958,30.9492192 L7.83053958,30.9492192 L7.83053958,25.7288538 C7.83053958,23.1186624 5.59322721,20.5084883 2.61017413,20.5084883 L2.61017413,20.5084883 L2.61017413,19.3899288 C2.61017413,18.6441653 3.35594062,18.2712834 4.10170282,18.2712834 Z M39.8983742,18.2711588 C40.6441407,18.2711588 41.3899029,18.644042 41.3899029,19.3898042 L41.3899029,19.3898042 L41.3899029,20.5084496 C38.4068283,20.5084496 36.1695374,23.118641 36.1695374,25.7288151 L36.1695374,25.7288151 L36.1695374,30.9490946 C36.1695374,33.9321692 38.4068498,36.1694601 41.3899029,36.1694601 L41.3899029,36.1694601 L41.3899029,37.2881055 C41.3899029,38.033872 40.6441364,38.7796342 39.8983742,38.7796342 C33.5594019,38.7796342 28.3390795,40.6440633 23.118714,43.9999996 L23.118714,43.9999996 L23.118714,22.3728573 C28.3390365,19.3898042 33.5594019,18.2711588 39.8983742,18.2711588 Z M41.3898255,23.1186324 C42.8813542,23.1186324 43.9999996,24.2372778 43.9999996,25.7288065 L43.9999996,25.7288065 L43.9999996,30.949172 C43.9999996,32.4407006 42.8813542,33.1864628 41.3898255,33.1864628 C39.8982968,33.1864628 38.7796514,32.4407006 38.7796514,30.949172 L38.7796514,30.949172 L38.7796514,25.7288065 C38.7796514,24.2372778 39.8982968,23.1186324 41.3898255,23.1186324 Z M2.61010538,23.4914812 C4.10163407,23.4914812 5.22027951,24.6101267 5.22027951,25.7287721 L5.22027951,25.7287721 L5.22027951,30.9491376 C5.22027951,32.4406663 4.10163407,33.1864285 2.61010538,33.1864285 C1.11857669,33.1864285 -6.87500833e-05,32.4406663 -6.87500833e-05,30.9491376 L-6.87500833e-05,30.9491376 L-6.87500833e-05,25.7287721 C-6.87500833e-05,24.6101267 1.11857669,23.4914812 2.61010538,23.4914812 Z M24.6100794,15.6610104 C26.4745085,15.6610104 27.9660372,16.0338937 29.8304449,16.7796559 C26.8474219,17.525418 24.2372305,18.6440635 21.9999397,20.1355922 C19.7626402,18.6440635 17.1524875,17.525418 14.1694345,16.7796559 C16.0338636,16.0338924 17.5253923,15.6610104 19.3897999,15.6610104 L19.3897999,15.6610104 Z M22.0000256,1.77635684e-14 C26.1017112,1.77635684e-14 29.8305308,3.72880668 29.8305308,7.83050521 C29.8305308,11.9321908 26.1017241,15.2881285 22.0000256,15.6610104 C17.89834,15.6610104 14.1695204,11.9322037 14.1695204,7.83050521 C14.1695204,3.72881957 17.8983271,1.77635684e-14 22.0000256,1.77635684e-14 Z" id="形状结合"></path>
            </g>
        </g>
    </g>
</svg>