<?xml version="1.0" encoding="UTF-8"?>
<svg width="200px" height="200px" viewBox="0 0 200 200" version="1.1" xmlns="http://www.w3.org/2000/svg" xmlns:xlink="http://www.w3.org/1999/xlink">
    <!-- Generator: Sketch 61.1 (89650) - https://sketch.com -->
    <title>组件/页面/答题通/学业里程碑/开始学习</title>
    <desc>Created with Sketch.</desc>
    <defs>
        <linearGradient x1="3.61175217%" y1="21.3036078%" x2="87.5747291%" y2="88.6072501%" id="linearGradient-1">
            <stop stop-color="#4ACAFD" offset="0%"></stop>
            <stop stop-color="#3E8CFA" offset="100%"></stop>
        </linearGradient>
        <path d="M95,5.77350269 L148.612159,36.7264973 C154.800181,40.2991532 158.612159,46.9016936 158.612159,54.0470054 L158.612159,115.952995 C158.612159,123.098306 154.800181,129.700847 148.612159,133.273503 L95,164.226497 C88.8119785,167.799153 81.1880215,167.799153 75,164.226497 L21.3878407,133.273503 C15.1998191,129.700847 11.3878407,123.098306 11.3878407,115.952995 L11.3878407,54.0470054 C11.3878407,46.9016936 15.1998191,40.2991532 21.3878407,36.7264973 L75,5.77350269 C81.1880215,2.20084679 88.8119785,2.20084679 95,5.77350269 Z" id="path-2"></path>
        <filter x="-34.5%" y="-27.6%" width="169.0%" height="178.7%" filterUnits="objectBoundingBox" id="filter-4">
            <feOffset dx="0" dy="20" in="SourceAlpha" result="shadowOffsetOuter1"></feOffset>
            <feGaussianBlur stdDeviation="20" in="shadowOffsetOuter1" result="shadowBlurOuter1"></feGaussianBlur>
            <feColorMatrix values="0 0 0 0 0.231372549   0 0 0 0 0.231372549   0 0 0 0 0.231372549  0 0 0 0.0989947552 0" type="matrix" in="shadowBlurOuter1"></feColorMatrix>
        </filter>
        <linearGradient x1="50%" y1="0%" x2="50%" y2="100%" id="linearGradient-5">
            <stop stop-color="#4AD5EF" offset="0%"></stop>
            <stop stop-color="#44B8EE" offset="100%"></stop>
        </linearGradient>
        <polygon id="path-6" points="7.10542736e-15 -1.77635684e-14 39.1373394 -1.77635684e-14 66.9123929 44.7801197 30.3002142 44.7801197"></polygon>
        <linearGradient x1="50%" y1="100%" x2="50%" y2="-14.4171173%" id="linearGradient-8">
            <stop stop-color="#3A7BF3" offset="0%"></stop>
            <stop stop-color="#5598FE" offset="100%"></stop>
        </linearGradient>
        <polygon id="path-9" points="70.7 -2.13162821e-14 35.3501606 44.7801197 -4.61852778e-14 44.8706472 34.0873929 -2.13162821e-14"></polygon>
        <linearGradient x1="10.281808%" y1="70.139832%" x2="100%" y2="41.8751468%" id="linearGradient-11">
            <stop stop-color="#4ACAFD" offset="0%"></stop>
            <stop stop-color="#3E8CFA" offset="100%"></stop>
        </linearGradient>
        <radialGradient cx="0%" cy="0%" fx="0%" fy="0%" r="141.175004%" id="radialGradient-12">
            <stop stop-color="#FFFFFF" offset="0%"></stop>
            <stop stop-color="#47BBFC" offset="100%"></stop>
        </radialGradient>
        <path d="M4.10170282,18.2712834 C10.440675,18.2712834 15.6609975,19.3899288 20.881363,22.3729819 L20.881363,22.3729819 L20.881363,44.0001242 C15.6610405,40.6441664 10.440675,38.7797588 4.10170282,38.7797588 C3.35593633,38.7797588 2.61017413,38.0339923 2.61017413,37.2882301 L2.61017413,37.2882301 L2.61017413,36.1695847 C5.5932487,36.1695847 7.83053958,33.9322723 7.83053958,30.9492192 L7.83053958,30.9492192 L7.83053958,25.7288538 C7.83053958,23.1186624 5.59322721,20.5084883 2.61017413,20.5084883 L2.61017413,20.5084883 L2.61017413,19.3899288 C2.61017413,18.6441653 3.35594062,18.2712834 4.10170282,18.2712834 Z M39.8983742,18.2711588 C40.6441407,18.2711588 41.3899029,18.644042 41.3899029,19.3898042 L41.3899029,19.3898042 L41.3899029,20.5084496 C38.4068283,20.5084496 36.1695374,23.118641 36.1695374,25.7288151 L36.1695374,25.7288151 L36.1695374,30.9490946 C36.1695374,33.9321692 38.4068498,36.1694601 41.3899029,36.1694601 L41.3899029,36.1694601 L41.3899029,37.2881055 C41.3899029,38.033872 40.6441364,38.7796342 39.8983742,38.7796342 C33.5594019,38.7796342 28.3390795,40.6440633 23.118714,43.9999996 L23.118714,43.9999996 L23.118714,22.3728573 C28.3390365,19.3898042 33.5594019,18.2711588 39.8983742,18.2711588 Z M41.3898255,23.1186324 C42.8813542,23.1186324 43.9999996,24.2372778 43.9999996,25.7288065 L43.9999996,25.7288065 L43.9999996,30.949172 C43.9999996,32.4407006 42.8813542,33.1864628 41.3898255,33.1864628 C39.8982968,33.1864628 38.7796514,32.4407006 38.7796514,30.949172 L38.7796514,30.949172 L38.7796514,25.7288065 C38.7796514,24.2372778 39.8982968,23.1186324 41.3898255,23.1186324 Z M2.61010538,23.4914812 C4.10163407,23.4914812 5.22027951,24.6101267 5.22027951,25.7287721 L5.22027951,25.7287721 L5.22027951,30.9491376 C5.22027951,32.4406663 4.10163407,33.1864285 2.61010538,33.1864285 C1.11857669,33.1864285 -6.87500833e-05,32.4406663 -6.87500833e-05,30.9491376 L-6.87500833e-05,30.9491376 L-6.87500833e-05,25.7287721 C-6.87500833e-05,24.6101267 1.11857669,23.4914812 2.61010538,23.4914812 Z M24.6100794,15.6610104 C26.4745085,15.6610104 27.9660372,16.0338937 29.8304449,16.7796559 C26.8474219,17.525418 24.2372305,18.6440635 21.9999397,20.1355922 C19.7626402,18.6440635 17.1524875,17.525418 14.1694345,16.7796559 C16.0338636,16.0338924 17.5253923,15.6610104 19.3897999,15.6610104 L19.3897999,15.6610104 Z M22.0000256,1.77635684e-14 C26.1017112,1.77635684e-14 29.8305308,3.72880668 29.8305308,7.83050521 C29.8305308,11.9321908 26.1017241,15.2881285 22.0000256,15.6610104 C17.89834,15.6610104 14.1695204,11.9322037 14.1695204,7.83050521 C14.1695204,3.72881957 17.8983271,1.77635684e-14 22.0000256,1.77635684e-14 Z" id="path-13"></path>
        <filter x="-1.1%" y="-1.1%" width="102.3%" height="102.3%" filterUnits="objectBoundingBox" id="filter-14">
            <feOffset dx="-1" dy="-1" in="SourceAlpha" result="shadowOffsetInner1"></feOffset>
            <feComposite in="shadowOffsetInner1" in2="SourceAlpha" operator="arithmetic" k2="-1" k3="1" result="shadowInnerInner1"></feComposite>
            <feColorMatrix values="0 0 0 0 0   0 0 0 0 0   0 0 0 0 0  0 0 0 0.198208042 0" type="matrix" in="shadowInnerInner1"></feColorMatrix>
        </filter>
    </defs>
    <g id="组件/页面/答题通/学业里程碑/开始学习" stroke="none" stroke-width="1" fill="none" fill-rule="evenodd">
        <g id="编组-3备份-2" transform="translate(15.000000, 12.000000)">
            <g id="矩形" transform="translate(0.000000, 6.000000)">
                <mask id="mask-3" fill="white">
                    <use xlink:href="#path-2"></use>
                </mask>
                <g id="蒙版" fill-rule="nonzero">
                    <use fill="black" fill-opacity="1" filter="url(#filter-4)" xlink:href="#path-2"></use>
                    <use fill="url(#linearGradient-1)" xlink:href="#path-2"></use>
                    <use fill="#FFFFFF" xlink:href="#path-2"></use>
                </g>
            </g>
            <g id="编组" transform="translate(35.000000, -0.000000)">
                <g id="分组">
                    <mask id="mask-7" fill="white">
                        <use xlink:href="#path-6"></use>
                    </mask>
                    <use id="路径" fill="url(#linearGradient-5)" fill-rule="nonzero" xlink:href="#path-6"></use>
                    <polygon id="路径" fill="#4FECEA" fill-rule="nonzero" mask="url(#mask-7)" points="13.8875 -1.77635684e-14 49.2373394 -1.77635684e-14 74.4873929 44.7801197 44.1877142 44.7801197"></polygon>
                </g>
                <g id="分组-2" transform="translate(30.300000, -0.000000)">
                    <mask id="mask-10" fill="white">
                        <use xlink:href="#path-9"></use>
                    </mask>
                    <use id="路径" fill="url(#linearGradient-8)" fill-rule="nonzero" xlink:href="#path-9"></use>
                    <polygon id="路径" fill="url(#linearGradient-11)" fill-rule="nonzero" mask="url(#mask-10)" points="58.075 -2.13162821e-14 22.7251606 44.7801197 -12.625 44.8706472 21.4623929 -2.13162821e-14"></polygon>
                </g>
            </g>
            <path d="M95,26.7735027 L135.621778,50.2264973 C141.8098,53.7991532 145.621778,60.4016936 145.621778,67.5470054 L145.621778,114.452995 C145.621778,121.598306 141.8098,128.200847 135.621778,131.773503 L95,155.226497 C88.8119785,158.799153 81.1880215,158.799153 75,155.226497 L34.3782217,131.773503 C28.1902002,128.200847 24.3782217,121.598306 24.3782217,114.452995 L24.3782217,67.5470054 C24.3782217,60.4016936 28.1902002,53.7991532 34.3782217,50.2264973 L75,26.7735027 C81.1880215,23.2008468 88.8119785,23.2008468 95,26.7735027 Z" id="多边形" fill="url(#linearGradient-1)" fill-rule="nonzero"></path>
            <circle id="椭圆形" stroke="url(#linearGradient-1)" stroke-width="4" fill="url(#radialGradient-12)" cx="85" cy="91" r="50"></circle>
            <g id="学习" transform="translate(63.000000, 69.000000)" fill-rule="nonzero">
                <g id="形状结合">
                    <use fill="#FFFFFF" xlink:href="#path-13"></use>
                    <use fill="black" fill-opacity="1" filter="url(#filter-14)" xlink:href="#path-13"></use>
                </g>
            </g>
        </g>
    </g>
</svg>