<?xml version="1.0" encoding="UTF-8"?>
<svg width="200px" height="200px" viewBox="0 0 200 200" version="1.1" xmlns="http://www.w3.org/2000/svg" xmlns:xlink="http://www.w3.org/1999/xlink">
    <!-- Generator: Sketch 61.1 (89650) - https://sketch.com -->
    <title>组件/页面/答题通/学业里程碑/再刷一遍未激活</title>
    <desc>Created with Sketch.</desc>
    <defs>
        <path d="M95,5.77350269 L148.612159,36.7264973 C154.800181,40.2991532 158.612159,46.9016936 158.612159,54.0470054 L158.612159,115.952995 C158.612159,123.098306 154.800181,129.700847 148.612159,133.273503 L95,164.226497 C88.8119785,167.799153 81.1880215,167.799153 75,164.226497 L21.3878407,133.273503 C15.1998191,129.700847 11.3878407,123.098306 11.3878407,115.952995 L11.3878407,54.0470054 C11.3878407,46.9016936 15.1998191,40.2991532 21.3878407,36.7264973 L75,5.77350269 C81.1880215,2.20084679 88.8119785,2.20084679 95,5.77350269 Z" id="path-1"></path>
        <filter x="-34.5%" y="-27.6%" width="169.0%" height="178.7%" filterUnits="objectBoundingBox" id="filter-3">
            <feOffset dx="0" dy="20" in="SourceAlpha" result="shadowOffsetOuter1"></feOffset>
            <feGaussianBlur stdDeviation="20" in="shadowOffsetOuter1" result="shadowBlurOuter1"></feGaussianBlur>
            <feColorMatrix values="0 0 0 0 0.233242754   0 0 0 0 0.233242754   0 0 0 0 0.233242754  0 0 0 0.103638549 0" type="matrix" in="shadowBlurOuter1"></feColorMatrix>
        </filter>
    </defs>
    <g id="组件/页面/答题通/学业里程碑/再刷一遍未激活" stroke="none" stroke-width="1" fill="none" fill-rule="evenodd">
        <g id="编组-3备份-2" transform="translate(14.000000, 15.000000)">
            <g id="矩形">
                <mask id="mask-2" fill="white">
                    <use xlink:href="#path-1"></use>
                </mask>
                <g id="蒙版">
                    <use fill="black" fill-opacity="1" filter="url(#filter-3)" xlink:href="#path-1"></use>
                    <use fill="#D8D8D8" fill-rule="evenodd" xlink:href="#path-1"></use>
                </g>
            </g>
            <path d="M95,20.7735027 L135.621778,44.2264973 C141.8098,47.7991532 145.621778,54.4016936 145.621778,61.5470054 L145.621778,108.452995 C145.621778,115.598306 141.8098,122.200847 135.621778,125.773503 L95,149.226497 C88.8119785,152.799153 81.1880215,152.799153 75,149.226497 L34.3782217,125.773503 C28.1902002,122.200847 24.3782217,115.598306 24.3782217,108.452995 L24.3782217,61.5470054 C24.3782217,54.4016936 28.1902002,47.7991532 34.3782217,44.2264973 L75,20.7735027 C81.1880215,17.2008468 88.8119785,17.2008468 95,20.7735027 Z" id="多边形" fill="#FFFFFF" fill-rule="nonzero"></path>
            <path d="M73,96.6870229 C77.2716858,97.0534351 82.3502455,96.6870229 87.6661211,95.4961832 C93.2667758,94.259542 98.2978723,92.2900763 102,90 C99.9590835,96.9160305 93.3617021,102 85.5302782,102 C80.594108,102 76.0851064,99.9389313 73,96.6870229 Z M68.6648045,90.1904391 C68.2374302,88.6501049 68,87.0134999 68,85.3287594 C68,75.7498063 75.6452514,68 85.0949721,68 C93.7374302,68 100.860335,74.4982848 102,82.9219872 C98.5810056,85.5694366 93.0726257,88.1687505 86.6145251,89.6609492 C79.5391061,91.3456897 72.9385475,91.3456897 68.6648045,90.1904391 L68.6648045,90.1904391 Z M77.5,88 C79.4391892,88 81,86.4391892 81,84.5 C81,82.5608108 79.4391892,81 77.5,81 C75.5608108,81 74,82.5608108 74,84.5 C74,86.4391892 75.5608108,88 77.5,88 Z M88,76 C89.0810811,76 90,75.3108108 90,74.5 C90,73.6891892 89.0810811,73 88,73 C86.9189189,73 86,73.6891892 86,74.5 C86,75.3108108 86.9189189,76 88,76 Z M93.5,85 C94.3035714,85 95,84.3571429 95,83.5 C95,82.6964286 94.3571429,82 93.5,82 C92.6964286,82 92,82.6428571 92,83.5 C92.0535714,84.3571429 92.6964286,85 93.5,85 Z M64.887806,80.6706479 L66.6639259,82.6498175 C64.3597704,84.6289871 63.3997056,86.5139106 63.7357283,88.0218493 C64.6957931,92.0744348 75.0644928,93.7708659 86.8732897,91.0848499 C98.6820865,88.398834 107.226663,82.4142021 106.266598,78.3616166 C105.882572,76.7123086 103.722427,75.298616 100.170187,74.5446467 L100.698223,72 C105.210527,72.9424617 108.186728,74.9216314 108.858773,77.7961396 C110.29887,83.8750177 100.554213,90.6607422 87.4493285,93.6294966 C74.3444442,96.598251 62.5836505,94.6662045 61.1435534,88.5873264 C60.5195112,85.9955566 61.9596084,83.2152945 64.887806,80.6706479 L64.887806,80.6706479 Z" id="形状" fill="#D8D8D8" fill-rule="nonzero"></path>
        </g>
    </g>
</svg>