<?xml version="1.0" encoding="UTF-8"?>
<svg width="34px" height="46px" viewBox="0 0 34 46" version="1.1" xmlns="http://www.w3.org/2000/svg" xmlns:xlink="http://www.w3.org/1999/xlink">
    <!-- Generator: Sketch 61.1 (89650) - https://sketch.com -->
    <title>医院</title>
    <desc>Created with Sketch.</desc>
    <g id="控件" stroke="none" stroke-width="1" fill="none" fill-rule="evenodd">
        <g id="组件/页面/院外通/地图/医院标点" transform="translate(-5.000000, 1.000000)" fill-rule="nonzero">
            <g id="医院" transform="translate(5.000000, 0.000000)">
                <path d="M17.0122717,43.6812227 C18.2238673,43.6812227 19.1803914,42.7884685 19.3079271,41.576873 C19.9456099,36.6667423 22.4963367,32.2029285 26.4499432,29.2058547 C30.4673413,26.1449808 32.826771,21.4261386 32.826771,16.3884335 C32.8905392,7.58842328 25.8122862,0.382598492 17.012276,0.318832793 L16.0557518,0.318832793 C8.27603576,0.701442027 1.64414523,7.07825472 1.00644527,15.1130336 C0.496298193,20.72463 3.11079498,26.208695 7.7021015,29.4608745 C11.5919595,32.139137 13.9513978,36.9217621 14.5252891,41.6405957 C14.6528257,42.7884213 15.6731147,43.6812227 16.8209445,43.6812227 L17.0122489,43.6812227 L17.0122717,43.6812227 Z" id="路径" stroke="#FFFFFF" fill="#81D8CE"></path>
                <path d="M16.8209316,44.0000512 C15.4818004,44.0000512 14.3977405,42.9797613 14.2064348,41.7043958 C13.6325221,36.7304564 11.145561,32.2666856 7.51077862,29.7159717 C2.791945,26.4637921 0.177422431,20.8521957 0.687590993,15.113068 C1.38903947,7.0145234 8.14847858,0.382632867 16.1194918,-4.29688e-06 L17.0760159,-4.29688e-06 C21.4122553,0.0637639804 25.493432,1.78550403 28.5542715,4.84636072 C31.6151453,7.97100029 33.2731051,12.0521855 33.2093394,16.388382 C33.2093394,21.4898527 30.7861483,26.3999835 26.7049803,29.4608659 C22.8788879,32.3942041 20.3281525,36.7942221 19.6904955,41.5768214 C19.562959,42.9159527 18.41513,43.9362425 17.0759987,43.9362425 L17.0759987,43.808706 L17.0759987,43.9362425 L16.8209261,43.9362425 L16.8209261,44.0000512 L16.8209316,44.0000512 Z M16.8846999,0.637656992 L16.1194815,0.637656992 C8.46729676,1.02026623 1.96293763,7.33331322 1.32528064,15.176795 C0.87890356,20.66086 3.36586466,26.0811593 7.89340547,29.2058074 C11.6557278,31.8203042 14.2702332,36.4753979 14.8441245,41.6405914 C14.9716611,42.6608813 15.8006487,43.3623341 16.8209385,43.3623341 L17.0122429,43.3623341 C18.0325328,43.3623341 18.9252869,42.5971156 18.9890569,41.5768257 C19.6267397,36.6028863 22.3050022,32.0115841 26.2586474,29.0145103 C30.1485055,26.0174064 32.5079438,21.3623256 32.5079438,16.4521949 C32.571712,12.3072612 30.9775068,8.35365035 28.0441729,5.35653358 C25.1108348,2.3594297 21.2209853,0.70146566 17.0122773,0.637656992 L16.8847407,0.637656992 L16.8846999,0.637656992 Z" id="形状" fill="#FFFFFF"></path>
                <path d="M8.59485566,21.9362599 L24.536882,21.9362599 L24.536882,23.2753911 L8.59485566,23.2753911 L8.59485566,21.9362599 Z M16.7571659,7.97101318 L11.1455696,7.97101318 C10.2528154,7.97101318 9.55136693,8.73623165 9.55136693,9.62898581 L9.55136693,21.3623471 L12.2933994,21.3623471 L12.2933994,17.6637905 L15.6093447,17.6637905 L15.6093447,21.3623471 L18.3513772,21.3623471 L18.3513772,9.62898581 C18.3513772,8.73623165 17.6499287,7.97101318 16.7571745,7.97101318 L16.7571659,7.97101318 Z M15.9919475,12.8811439 L14.6528162,12.8811439 L14.6528162,14.2840451 L13.3774507,14.2840451 L13.3774507,12.8811439 L12.0383194,12.8811439 L12.0383194,11.6057783 L13.3774507,11.6057783 L13.3774507,10.2028771 L14.6528162,10.2028771 L14.6528162,11.6057783 L15.9919475,11.6057783 L15.9919475,12.8811439 Z M22.4325409,12.5622986 L18.7339843,12.5622986 L18.7339843,21.4260789 L23.5165836,21.4260789 L23.5165836,13.7738942 C23.5803519,13.1362114 23.0702065,12.5622986 22.4325237,12.5622986 L22.4325409,12.5622986 Z M21.6035524,20.8521876 L20.0731155,20.8521876 L20.0731155,19.4492863 L21.6035524,19.4492863 L21.6035524,20.8521876 Z M21.6035524,18.4289965 L20.0731155,18.4289965 L20.0731155,17.0260952 L21.6035524,17.0260952 L21.6035524,18.4289965 Z M21.6035524,16.0058054 L20.0731155,16.0058054 L20.0731155,14.6029041 L21.6035524,14.6029041 L21.6035524,16.0058054 Z M18.9252899,21.362339 L22.878918,21.462339" id="形状" fill="#FFFFFF"></path>
            </g>
        </g>
    </g>
</svg>